 <svg width="187" height="72" viewBox="0 0 187 72" fill="none" xmlns="http://www.w3.org/2000/svg">
              <path
                d="M117.861 22.777C117.314 23.7038 115.133 27.9345 117.673 27.7916C119.608 27.6827 124.166 27.7626 124.467 25.3469C124.653 23.8578 124.657 21.8353 123.34 20.888C121.562 19.6099 119.499 21.7689 118.141 22.7505"
                stroke="white"
                stroke-width="2"
                stroke-linecap="round"
              />
              <path
                d="M123.872 23.8126C125.547 22.8393 127.02 21.722 128.916 21.1091C129.45 20.9367 129.63 20.9263 129.839 20.4581"
                stroke="white"
                stroke-width="2"
                stroke-linecap="round"
              />
              <path
                d="M128.821 17.0639C129.095 19.9754 129.272 22.5259 130.969 25.043C132.753 27.6914 135.141 29.9259 137.239 32.3259"
                stroke="white"
                stroke-width="2"
                stroke-linecap="round"
              />
              <path
                d="M133.425 14.0685C134.281 13.65 136.875 12.3822 137.859 12.9265C139.654 13.9182 139.196 16.0427 138.262 17.3494C136.653 19.6012 136.57 19.9969 137.753 22.5047"
                stroke="white"
                stroke-width="2"
                stroke-linecap="round"
              />
              <path
                d="M139.422 25.8379C139.553 26.2436 139.845 26.2598 140.179 26.4646"
                stroke="white"
                stroke-width="2"
                stroke-linecap="round"
              />
              <path
                d="M146.302 17.3858C147.951 17.1475 149.646 16.7338 151.275 16.3803C153.151 15.9735 152.413 16.9394 152.153 18.152C151.834 19.6394 151.618 21.165 151.222 22.6316"
                stroke="white"
                stroke-width="2"
                stroke-linecap="round"
              />
              <path
                d="M146.6 27.9531C150.27 27.2608 154 27.2449 157.606 26.218"
                stroke="white"
                stroke-width="2"
                stroke-linecap="round"
              />
              <path
                d="M157.78 13.265C159.192 12.8569 162.151 11.8488 162.37 14.1784C162.456 15.0931 161.842 16.5329 161.203 17.1921C160.767 17.6411 160.226 17.4024 159.651 17.5875C158.114 18.0832 158.595 19.5247 158.726 20.9148C158.806 21.7636 164.336 20.0916 165.37 19.728"
                stroke="white"
                stroke-width="2"
                stroke-linecap="round"
              />
              <path
                d="M164.133 21.415C164.331 23.5198 164.528 25.6068 164.72 27.6422"
                stroke="white"
                stroke-width="2"
                stroke-linecap="round"
              />
              <path
                d="M161.327 28.6597C163.637 28.442 166.035 27.9673 168.288 27.4899C168.981 27.343 169.591 27.3547 170.257 27.1202"
                stroke="white"
                stroke-width="2"
                stroke-linecap="round"
              />
              <path
                d="M134.749 42.9511C135.555 42.5191 141.636 41.0816 141.673 42.3531C141.739 44.696 139.642 46.5368 139.494 48.8663"
                stroke="white"
                stroke-width="2"
                stroke-linecap="round"
              />
              <path
                d="M134.221 52.1563C137.247 51.8712 140.125 50.9019 143.151 50.6168"
                stroke="white"
                stroke-width="2"
                stroke-linecap="round"
              />
              <path
                d="M143.122 35.4771C144.313 35.3648 149.524 34.1215 149.646 35.4178C149.79 36.9391 149.764 39.2841 147.787 39.5829C146.599 39.7623 145.811 40.0064 145.464 41.2159C145.087 42.5278 144.794 43.6639 144.923 45.0295C145.064 46.5297 145.721 46.1748 147.092 46.012C148.27 45.8719 149.988 45.5964 150.996 44.9623"
                stroke="white"
                stroke-width="2"
                stroke-linecap="round"
              />
              <path
                d="M153.48 34.2856C153.741 37.0644 152.617 39.9434 152.878 42.719"
                stroke="white"
                stroke-width="2"
                stroke-linecap="round"
              />
              <path
                d="M153.934 39.1294C155.219 38.5043 156.548 38.1851 158.021 38.0463"
                stroke="white"
                stroke-width="2"
                stroke-linecap="round"
              />
              <path
                d="M157.567 33.2029C157.941 37.1741 157.611 41.0788 157.983 45.0306"
                stroke="white"
                stroke-width="2"
                stroke-linecap="round"
              />
              <path d="M151.324 48.4502L151.715 52.6017" stroke="white" stroke-width="2" stroke-linecap="round" />
              <path
                d="M152.772 49.0146C154.402 48.8609 155.174 48.6514 156.074 50.0392C156.399 50.5394 156.39 51.8444 155.861 52.1619C155.373 52.4543 154.953 52.598 154.439 52.8525C153.202 53.4647 157.192 52.4739 158.553 52.205C160.398 51.8408 162.255 51.2378 164.134 51.0608"
                stroke="white"
                stroke-width="2"
                stroke-linecap="round"
              />
              <path
                d="M112.629 53.8102C113.644 53.1775 113.337 55.6383 114.495 56.2186C117.734 57.8425 120.72 59.9895 123.965 61.6547C132.387 65.9768 141.756 65.5088 150.956 64.6418C153.413 64.4103 156.267 64.5292 158.632 63.7372C162.049 62.5929 165.402 61.0471 168.527 59.2507C174.871 55.6044 179.084 48.9111 182.691 42.7204C185.676 37.5979 186.151 30.95 185.606 25.1648C184.693 15.4699 177.257 8.19394 168.301 5.09007C165.958 4.27789 163.902 3.53474 161.458 3.08751C159.303 2.69335 157.186 2.03802 155.007 1.79137C152.717 1.53207 150.434 1.85012 148.145 1.71264C144.118 1.47077 140.152 1.03332 136.113 1.41394C132.616 1.74345 129.657 3.51415 126.603 5.17512C120.223 8.64449 114.326 11.2549 109.622 17.0205C106.694 20.61 104.18 24.9587 102.659 29.3362C101.086 33.8656 100.958 37.8427 101.402 42.5469C101.809 46.8715 104.424 47.4254 108.158 48.4381"
                stroke="white"
                stroke-width="2"
                stroke-linecap="round"
              />
              <path
                d="M108.053 48.8175C108.003 48.8213 107.969 48.8289 107.922 48.8474C107.701 48.935 107.482 49.0217 107.256 49.1015C106.915 49.2224 106.57 49.3405 106.308 49.5613C105.875 49.9262 105.625 50.4946 105.474 50.9659C105.347 51.3614 105.337 51.786 105.368 52.1867C105.399 52.5808 105.7 52.8809 106.073 53.1113C106.619 53.4498 107.356 53.5605 108.017 53.6951C108.267 53.7461 108.563 53.7394 108.821 53.7247C109.347 53.6945 109.874 53.6436 110.399 53.6026C110.8 53.5713 111.178 53.5657 111.545 53.4145C111.878 53.2772 112.178 53.086 112.458 52.8872C112.696 52.7182 112.905 52.5115 113.022 52.2738C113.107 52.1012 113.103 52.0086 113.3 51.912"
                stroke="white"
                stroke-width="2"
                stroke-linecap="round"
              />
              <path
                d="M103.816 56.4502C103.412 55.9328 103.026 55.2771 102.488 54.896C101.7 54.3372 100.412 54.4558 99.6807 54.9347C98.9994 55.381 97.983 55.9614 98.4764 56.9766C98.7287 57.4958 99.2662 58.0198 99.6251 58.4624C100.622 59.6926 102.029 59.9052 103.276 59.0931C103.894 58.6911 104.226 58.3215 104.34 57.5709C104.477 56.6777 104.068 56.3381 103.515 55.6308"
                stroke="white"
                stroke-width="2"
                stroke-linecap="round"
              />
              <path
                d="M96.1198 60.1873C96.0289 59.6 93.2809 60.5362 93.0731 61.0818C92.7757 61.8626 93.4142 62.9272 94.4734 62.9395C95.0471 62.9461 96.3816 63.1423 96.8483 62.7942C97.0888 62.6149 96.9713 62.1278 96.9713 61.8998C96.9713 61.5131 97.1544 60.4626 96.4604 60.4626"
                stroke="white"
                stroke-width="2"
                stroke-linecap="round"
              />
              <path
                d="M45.5 71.5C20.371 71.5 25.0954 71.5 4.15041e-06 71.5C5.24883e-06 46.371 20.371 26 45.5 26C70.629 26 91 46.371 91 71.5C66.1392 71.5 70.629 71.5 45.5 71.5Z"
                fill="#F9D423"
              />
              <path
                d="M43.8579 56.0209C45.8008 56.0209 45.4356 56.0209 47.3759 56.0209C47.3759 58.0934 45.8008 59.7734 43.8579 59.7734C41.9149 59.7734 40.3398 58.0934 40.3398 56.0209C42.2621 56.0209 41.9149 56.0209 43.8579 56.0209Z"
                fill="#FF4E50"
              />
              <circle cx="34.2421" cy="45.2324" r="8.4433" fill="white" />
              <circle cx="53.0058" cy="45.2324" r="8.4433" fill="white" />
              <circle cx="53.0042" cy="45.2322" r="6.09794" fill="black" />
              <circle cx="34.2425" cy="45.2322" r="6.09794" fill="black" />
              <rect x="37.5254" y="45.2319" width="3.75258" height="0.938144" rx="0.469072" fill="white" />
              <rect x="56.2891" y="45.2319" width="3.75258" height="0.938144" rx="0.469072" fill="white" />
            </svg>